# xmcd
#
# Track frame offsets: 
#        150
#        18055
#        38335
#        54650
#        73832
#        88697
#        112815
#        130165
#        142435
#        160457
#        172280
#        189157
#        211100
#        230092
#        238532
#
# Disc length: 3386 seconds
#
# Revision: 146
# Processed by: cddbd v1.5.2PL0 Copyright (c) Steve Scherf et al.
# Submitted via: ExactAudioCopy v1.6
#
DISCID=cf0d380f
DTITLE=Red Hot Chili Peppers / Californication
DYEAR=1999
DGENRE=Rock
TTITLE0=Around The World
TTITLE1=Parallel Universe
TTITLE2=Scar Tissue
TTITLE3=Otherside
TTITLE4=Get On Top
TTITLE5=Californication
TTITLE6=Easily
TTITLE7=Porcelain
TTITLE8=Emit Remmus
TTITLE9=I Like Dirt
TTITLE10=This Velvet Glove
TTITLE11=Savior
TTITLE12=Purple Stain
TTITLE13=Right On Time
TTITLE14=Road Trippin'
EXTD=Release Artist: Red Hot Chili Peppers\nRelease Title: Californication\nRelease Year: 1999\n\nGenre: Rock\nStyle: Altern
EXTD=ative Rock\n\nFormat: CD, Album\n\nCountry: Europe\n\nRelease Label: Warner Bros Records\nCatalog #: Warner Bros. Recor
EXTD=ds ?? 9362-47386-2\nCatalog #: Warner Bros. Records ?? 9362 47386 2\n\nBarcode (Text): 0 9362-47386-2 6\n\nCompanies, e
EXTD=tc.\nRecord Company ? Time Warner\nPhonographic Copyright (p) ? Warner Bros. Records Inc.\nPhonographic Copyright (p) 
EXTD=? WEA International Inc.\nCopyright (c) ? Warner Bros. Records Inc.\nCopyright (c) ? WEA International Inc.\nCopyright 
EXTD=(c) ? Moebetoblame Music\nMade By ? Warner Music Manufacturing Europe\nRecorded At ? Ocean Way Recording\nMixed At ? Th
EXTD=e Village Recorder\nMastered At ? Sony Music Studios, New York City\n\nCredits\nAdvisor ? Eric Greenspan\nArt Directio
EXTD=n ? Lawrence Azerrad, Red Hot Chili Peppers\nCoordinator [Production Coordinator] ? Lindsay Chase\nEngineer [Additional
EXTD=] ? David Schiffman, Greg Collins, Greg Fidelman, John Sorenson\nEngineer [Assistant] ? Greg Collins, Jennifer Hilliard
EXTD=, John Sorenson, Ok Hee Kim\nEngineer, Mixed By ? Jim Scott\nKeyboards ? Greg Kurstin\nManagement ? Q Prime Inc.\nManag
EXTD=ement [Our Man] ? Louis "Make It So" Mathieu*\nMastered By ? Vlado Meller\nPhotography By ? Sonya Koskoff\nPhotography 
EXTD=By [Back Cover] ? Tony Woolliscroft\nProducer ? Rick Rubin\nWritten-By ? Anthony Kiedis, Chad Smith, Flea, John Fruscia
EXTD=nte\n\nNotes\nThis is the original european pressing manufactured in May 1999.\nFor the June 1999 repress, see Red Hot 
EXTD=Chili Peppers - Californication.\nFor the November 1999 repress, see Red Hot Chili Peppers - Californication.\n\nWarne
EXTD=r Bros. Records Inc., a Time Warner Company ??1999 Warner Bros. Records Inc. for the U.S. and WEA International Inc. fo
EXTD=r the world outside the U.S. Made in Germany by Warner Music Manufacturing Europe.\n\n?1999 Moebetoblame Music BMI\n\nC
EXTD=at# 9362-47386-2: on spine, back cover, cd and booklet.\nCat# 9362 47386 2: on sticker.\n\nSticker say: "The new RED HO
EXTD=T CHILI PEPPERS album includes the hit singles scar tissue around the world & otherside 9362 47386 2"\n\n16-page bookle
EXTD=t\n\nThere is a Warner "Big W" logo embossed on the bottom right of the front of the original jewel case for this editi
EXTD=on.\n\nBarcode and Other Identifiers\nBarcode (Text): 0 9362-47386-2 6\nBarcode (Scanned): 093624738626\nPrice Code: W
EXTD=E 833\nLabel Code: LC 00392\nRights Society: GEMA/BIEM\nRights Society: BMI\nMatrix / Runout (Variant 1 to 10): 9362473
EXTD=86-2 05/99\nMastering SID Code (Variant 1 to 10): IFPI L012\nMould SID Code (Variant 1): IFPI 0506\nMould SID Code (Var
EXTD=iant 2): IFPI 0612\nMould SID Code (Variant 3): IFPI 0573\nMould SID Code (Variant 4): IFPI 05M2\nMould SID Code (Varia
EXTD=nt 5): IFPI 0574\nMould SID Code (Variant 6): IFPI 05Z8\nMould SID Code (Variant 7): IFPI 0513\nMould SID Code (Varian
EXTD=t 8): IFPI 0529\nMould SID Code (Variant 9): IFPI 0566\nMould SID Code (Variant 10): IFPI 0608\nMatrix / Runout (Mould
EXTD=, Inner ring, Variant 1 to 9): [Warner "W" logo]\nMatrix / Runout (Mould, Inner ring, Variant 10): 2
EXTT0=
EXTT1=
EXTT2=
EXTT3=
EXTT4=
EXTT5=
EXTT6=
EXTT7=
EXTT8=
EXTT9=
EXTT10=Acoustic Guitar ? John Frusciante
EXTT11=
EXTT12=
EXTT13=
EXTT14=Acoustic Bass ? Flea\nAcoustic Guitar ? John Frusciante\nOrgan [Chamberlin] ? Patrick Warren
PLAYORDER=
.
